<svg xmlns="http://www.w3.org/2000/svg" viewBox="0 0 1995.25 587.56"><defs><style>.cls-1,.cls-13{fill:#201e45;}.cls-2{fill:#c73c36;}.cls-3{fill:#fc811a;}.cls-4{fill:#dd6502;}.cls-5{fill:#be5906;}.cls-6{fill:#f7a551;}.cls-7{fill:#47446d;}.cls-8{fill:#eeeeed;}.cls-9{fill:#777aaa;}.cls-10{fill:#7d473e;}.cls-11{fill:#d48b7f;}.cls-12{fill:#c75f53;}.cls-13{font-size:512.94px;font-family:mogula;}</style></defs><title>skowly_logo_hb</title><g id="Layer_2" data-name="Layer 2"><g id="logo_horizontal_blue"><path class="cls-1" d="M451.05,261.51l-2,2.06c-1.94.23-2.14,1.54-1.91,3.11l0,0c-1.43-.1-1.87,1-2.61,1.93-5.93,7.23-5.41,16.2-6.35,24.62-1.8,16.12-2.49,32.37-7.72,47.94-1,3-2.51,6.33-.31,9.59,0,.17,0,.39-.08.49-6.72,7.31-2.77,12.88,2.25,19.21,14.47,18.25,26.55,38.15,38.32,58.22,1.08,1.86,1.88,3.88,2.81,5.83-22.91,4.65-45.8,9.37-68.28,16-15.92,4.67-31.52,10.2-47.18,15.59,2.12-3.92,4.26-7.84,6.36-11.77,8.66-16.18,12.89-33.63,15.26-51.9-1.9.54-3.49,1-5.08,1.44-21.12,5.81-41.71,4.76-61.66-4.72-14.15-6.72-25.21-17-34.42-29.51-1.08-2-2.09-4.13-3.24-6.13a87.15,87.15,0,0,1-11.11-34.65c-.87-7.9-1.62-8.94-10-10.3-6.22-2.3-15.4,1.67-15.89,7.2a99,99,0,0,1-14.58,43.54,28.14,28.14,0,0,0-2.32,2.58c-21.45,30.32-61.21,43-94.87,32.08-1-.32-2.2-.93-3.2.28,2.33,18.75,7.22,36.74,15.92,53.6,1.13,2.18,2.94,4.05,3.13,6.67-1.12-.29-2.27-.49-3.35-.88-26.8-9.65-54.31-16.69-82.14-22.59-10.68-2.27-21.62-3.17-32.12-6.3a446.84,446.84,0,0,1,47.18-70.45c2.37-2.88,2.93-5.08,1.27-8.66-8.63-18.64-11.88-38.71-13.72-58.88-1.45-15.88-5.28-30.62-13.94-44a21,21,0,0,1-1.26-3c14.67-2,29.17-3.64,43.5-6.4L131,234.65l2.09-.46c-17.79-8.62-36.45-14.62-51.41-27.17l.57-1.32L93.69,204c0-16.94-.13-33.77,6.54-50.14L0,126V107.86L66.33,90.58Q157.49,66.84,248.64,43a18.15,18.15,0,0,1,9.7,0Q345.27,66.2,432.21,89.2c4.43,1.85,8.94,3.53,13.28,5.58,15.93,7.5,22.76,19,21.41,35.66a17.09,17.09,0,0,0-3,.33q-24.19,6.85-48.38,13.77l-105.88,30c-11.5,3.27-23,6.56-34.5,9.78-3.68,1-5.77,2.83-4.38,7.27,10.64-3.06,21-6,31.33-9q38.79-11,77.58-22c9.25-2.62,18.44-5.48,28-7,1.91,8,4.23,15.87,3.33,24.24l-17.11,5.55c-3.19.81-6.43,1.47-9.57,2.45q-29.7,9.25-59.34,18.64a233.64,233.64,0,0,0-32.48,11.17c10.93-2.55,21.93-4.79,32.3-9.22,12.87-3.67,25.82-7.11,38.59-11.1,9.9-3.09,20.12-5.23,29.63-9.53L412,180.61v23.22c4.29,1,8.5.75,13.64,3.07-17.31,12.68-36.44,19.19-55.2,26.46a4,4,0,0,0-2.71,1.75l-1.43-.32a38.26,38.26,0,0,0-17,1.4c5.75.5,11.33,2.16,17.12,1.87l1.42.14,3.41.18c6.17,1.21,12.37,2.32,18.52,3.64,19.86,4.24,39.85,7.49,60.19,8.21,1.61.05,4.21,1.43,4.67-1.87,1.17.33,2.6-.51,3.75,1-1.84,3.73-5.24,6.56-6.71,10.57-.23.56-.45,1.13-.68,1.7ZM187,241.26c-4.4-4.28-9.93-3.62-15.13-4.39l-.36,1.39L187,242.57c8.68,5.25,17.28,10.57,24.24,18.14A84.86,84.86,0,0,1,231,296.07c.6,2.19,1.06,4.49,4.13,2.44,9.34-1.57,18.66-3.2,28.17-1.22,2.48.51,3.44-1.14,4.12-3.3a77.26,77.26,0,0,1,5.65-14.38c3.09-5.61,6.26-11.18,9.69-17.27-7.67,1.68-14.9,3.13-22.06,4.88-5.6,1.37-11.06,1.75-16.69.06-9.22-2.78-18.52-5.3-27.79-7.93-3.32-1.63-5.84-4.33-8.61-6.68A58.4,58.4,0,0,0,187,241.26ZM119,384.22a1.88,1.88,0,0,0,.82.47l1.27.61c11.48,7.09,24.14,6.83,36.9,5.85.41,0,.75-1,1.13-1.47,4.21-1,8.6-1.44,12.6-3,25.08-9.49,39.63-27.33,45.74-53.77,9-39-17.37-78.91-61-80.32-27.9-.9-53.83,6.83-78.25,20-3,.7-3.13,3-3.14,5.44,0,8.49.09,17,.85,25.45,1.55,17.26,5.44,33.86,13.36,49.3C96.07,366.11,105.31,377.31,119,384.22ZM324,387.49c5.26,3.12,11.11,4.12,17.05,4,3-.07,6.6,1.91,9-1.62,13.12-.09,25.23-3.31,36.09-11,13.39-9.47,22.17-22.28,27.69-37.48,7.66-21.12,8.29-43.23,9-65.35.12-4-1.44-6-4.91-7.45-17.75-7.67-36-13.29-55.32-15.61-31.64-3.81-58.29,9.1-73.73,36.46-2.89,1.4-3.33,4.44-4.37,6.94-8,19.31-6.31,38.37,2.57,56.81C294.89,369.31,307.05,381.09,324,387.49Z"/><path class="cls-2" d="M24.73,434.68c10.5,3.13,21.44,4,32.12,6.3,27.83,5.9,55.34,12.94,82.14,22.59,1.08.39,2.23.59,3.35.88H142l.94.16c6.79,2.65,13.62,5.17,20.34,8,32,13.36,62,30.2,89,52.17l-.24,26.81-2.12.14c-17.79-15.06-37.68-26.67-59-36a148,148,0,0,0-35-13.34c-8.09-4.22-17-5.6-25.53-8.06l-.36,1.26,26,7.95c5.72,2.17,11.42,4.42,17.18,6.47,5.43,1.93,10.37,5,16,6.38,1.95.92,3.92,1.8,5.85,2.77A353.2,353.2,0,0,1,251.9,555c.06,7.8.19,15.6.16,23.4,0,2.6.64,5.35-1.12,7.72a282.88,282.88,0,0,0-78.55-52.34A330.13,330.13,0,0,0,88,508.94a461.38,461.38,0,0,0-56.4-5.65,38.69,38.69,0,0,1-4.12-.58c-.83-7.75.73-15.34.4-23.44L1.53,475.93C8.88,461.66,16.52,448,24.73,434.68Zm102.64,59.26a4.12,4.12,0,0,0-1.13-.21c-.48.11-.5.39-.06.62a.62.62,0,0,0,.46.06A5.18,5.18,0,0,0,127.37,493.94Z"/><path class="cls-3" d="M250.94,586.15c1.76-2.37,1.11-5.12,1.12-7.72,0-7.8-.1-15.6-.16-23.4l0-.18c2.16-.17,3.59-1.66,5.13-2.88,27.18-21.45,57.65-36.8,90.06-48.54L381,493.15c-4.28-1.14-7.11.74-10,1.59-8.05,2.34-16.4,3.85-23.91,7.84a6.08,6.08,0,0,0-1.49.13c-24.65,8.27-48.54,18.22-70.36,32.57-7.89,5.18-15.47,10.83-23.18,16.27l.24-26.82a26.89,26.89,0,0,0,2.94-1.72,397,397,0,0,1,63.7-39.68c12.75-6.4,26-11.58,39.1-17.29,15.66-5.39,31.26-10.92,47.18-15.59,22.48-6.59,45.37-11.31,68.28-16,8.18,12.9,15.05,26.51,22.79,40.23-8.69,2.12-17.09,1.76-25,4.34,1.09,6.12,1.49,12.23,2,18.34.35,4-1,5.05-4.84,5.32-16.6,1.16-33.2,2.29-49.68,4.81-48.7,7.45-93.42,24.83-133.8,53.16A254.4,254.4,0,0,0,255,585.6C253.87,586.73,252.72,589.07,250.94,586.15Zm136.47-94.77.76-.27c-.1-.1-.18-.29-.29-.29a4.48,4.48,0,0,0-.81.06Zm-3.89,1,.64-.34c-.11-.09-.22-.26-.32-.26a7.55,7.55,0,0,0-.83.13Z"/><path class="cls-3" d="M466.9,130.44c1.35-16.7-5.48-28.16-21.41-35.66-4.34-2-8.85-3.73-13.28-5.58,13-6.28,26.24-4.06,36.73,6.2,1.42,1.39,2.78,2.87,4.17,4.3a54.59,54.59,0,0,1,7.32,27v6.77c-.92,11.57-.09,23.17-.33,34.75-.12,5.8.06,11.61,0,17.41,0,5.17-.42,9.91,3.94,14.44,3.6,3.74,3.42,9.48.68,14.49-.71,1.29-1.25,2.68-1.86,4-3.25.53-3,2.4-1.9,4.74,6.17,13,8.47,27.11,8.83,41.13.78,29.31.2,58.65.18,88-.36,2.22-.73,4.43-1.13,6.87-3.41-1.5-3-5.14-5.24-6.92-1.95,1.42-1,4.31-3.22,5.68-2.07-1.3-2.52-3.79-3.2-5.77s-1.67-1.54-2.93-1.33c-.07-2.49-.2-5-.2-7.48,0-38.95-.09-77.91.1-116.86,0-4.76-1.24-6.82-6-6.13-1.05-1.31-2.55-.9-3.91-1a8.62,8.62,0,0,0-.65-1.33c-6.1-8.7-5.66-15,1.76-22.38a5,5,0,0,0,1.56-3.95q-.09-27.11-.16-54.21A18.31,18.31,0,0,0,466.9,130.44Z"/><path class="cls-4" d="M468.12,220.47c4.8-.69,6.07,1.37,6,6.13-.19,39-.11,77.91-.1,116.86,0,2.5.13,5,.2,7.48a11.73,11.73,0,0,1-2.66,7.36c-2.35-2.61-2.1-6.05-3.68-9.06l-6.47,7.48-2.61-1.24.12-.33c0-1.28.37-2.69-1.08-3.55l.06.12a54.48,54.48,0,0,0,1.15-10.83c.62-27.36-1.92-54.8,2-82.05,1.34-9.27,1.07-18.8,4.72-27.76C467.17,227.81,468.54,224.26,468.12,220.47Z"/><path class="cls-5" d="M468.12,220.47c.42,3.79-.95,7.34-2.28,10.61-3.65,9-3.38,18.49-4.72,27.76-3.95,27.25-1.41,54.69-2,82.05a54.48,54.48,0,0,1-1.15,10.83c-3.19,1.31-4,5.21-8,7,.29-32.69-1.32-64.95,1.11-97.2l-.08.09c1-.25.52-1.11.68-1.7,1.47-4,4.87-6.84,6.71-10.57-1.15-1.48-2.58-.64-3.74-1-.26-.54-.53-1.09-.79-1.64a66.13,66.13,0,0,1,10.38-27.26C465.57,219.57,467.07,219.16,468.12,220.47Z"/><path class="cls-6" d="M490,352.41c0-29.33.6-58.67-.18-88-.36-14-2.66-28.12-8.83-41.13-1.11-2.34-1.35-4.21,1.9-4.74,6.72,7.58,8.11,17.27,10.18,26.59,3.55,16,2.94,32.39,2.95,48.68q0,29.94.08,59.89c0,1.27-.19,2.55-.3,4C492.47,357.11,492.49,353.39,490,352.41Z"/><path class="cls-1" d="M480.43,126.67a54.59,54.59,0,0,0-7.32-27l34.58,8.42-.49,10.41Z"/><path class="cls-2" d="M131,234.65l-43.19,8.63-3-16.42C100.45,231.05,115.54,234,131,234.65Z"/><path class="cls-7" d="M430.19,350.74c-2.2-3.26-.71-6.56.31-9.59,5.23-15.57,5.92-31.82,7.72-47.94.94-8.42.42-17.39,6.35-24.62.74-.91,1.18-2,2.61-1.93-4.84,9.33-4,19.68-5.09,29.64-1.83,16.31-3.15,32.69-9,48.24C432.3,346.67,431.84,349,430.19,350.74Z"/><path class="cls-7" d="M480.43,126.67l26.77-8.14c1,7.37.95,7.3-5.67,9.06-7.06,1.88-14.08,3.89-21.11,5.85C480.42,131.18,480.43,128.93,480.43,126.67Z"/><path class="cls-5" d="M458.84,355.48l2.61,1.24a3.09,3.09,0,0,1-1.95,2.22C458.67,357.92,458.78,356.69,458.84,355.48Z"/><path class="cls-7" d="M447.16,266.68c-.23-1.57,0-2.88,1.91-3.11A3.67,3.67,0,0,1,447.16,266.68Z"/><path class="cls-5" d="M457.88,351.6c1.45.86,1.07,2.27,1.08,3.55C457.84,354.2,458.12,352.82,457.88,351.6Z"/><path class="cls-8" d="M358,466c-13.06,5.71-26.35,10.89-39.1,17.29A397,397,0,0,0,255.23,523a26.89,26.89,0,0,1-2.94,1.72c-27-22-56.95-38.8-89-52.16-6.72-2.8-13.55-5.32-20.34-8l-.94-.16h.3c-.19-2.62-2-4.49-3.13-6.67-8.7-16.86-13.59-34.85-15.92-53.6,1-1.21,2.19-.6,3.2-.28,33.66,10.91,73.42-1.76,94.87-32.08a28.14,28.14,0,0,1,2.32-2.58c3.73,6.48,7.43,13,11.2,19.44,6.07,10.39,11.21,21.32,18.06,31.26l.73,1a8.16,8.16,0,0,0,1.12-1.54c7.09-17,15.61-33.29,23.7-49.81,9.21,12.47,20.27,22.79,34.42,29.51,19.95,9.48,40.54,10.53,61.66,4.72,1.59-.43,3.18-.9,5.08-1.44-2.37,18.27-6.6,35.72-15.26,51.9C362.29,458.2,360.15,462.12,358,466Z"/><path class="cls-8" d="M288.92,289.44C304.36,262.08,331,249.17,362.65,253c19.33,2.32,37.57,7.94,55.32,15.61,3.47,1.5,5,3.41,4.91,7.45-.69,22.12-1.32,44.23-9,65.35-5.52,15.2-14.3,28-27.69,37.48-10.86,7.69-23,10.91-36.09,11-9.05,0-17.45-3.12-26-5.4l0,.07c.24-1-.56-.89-1.09-1.08l.09.09a3.22,3.22,0,0,0-2.55-1.13c-.69-1.52-2.29-1.8-3.52-2.54-21.89-13.12-32.62-32.81-34.2-57.93C282.14,310.6,284.82,299.89,288.92,289.44Zm63.33,93.35c34.38.67,63-28.18,62.84-64.41C415,284.89,385.75,255.5,353,255.1c-31.91-.39-63.49,29.93-63.07,65.41C290.24,351.83,316.86,384.36,352.25,382.79Z"/><path class="cls-8" d="M78.18,272.64c24.42-13.18,50.35-20.91,78.25-20,43.63,1.41,70,41.35,61,80.32-6.11,26.44-20.66,44.28-45.74,53.77-4,1.52-8.39,2-12.6,3-13.16.61-26-.59-38-6.59-17.64-10.55-29-26-35.08-45.44C79.45,316.49,77.67,294.68,78.18,272.64ZM152.25,383c31,.95,63.68-23.42,63.66-63,0-35.77-30.12-64.7-65.73-64.75-34,0-68.94,36.72-60.05,76.62C95.05,353.93,117.9,384.66,152.25,383Z"/><path class="cls-4" d="M252.94,419.94c-6.85-9.94-12-20.87-18.06-31.26-3.77-6.46-7.47-13-11.2-19.44a99,99,0,0,0,14.58-43.54c.49-5.53,9.67-9.5,15.89-7.2a34.48,34.48,0,0,0-2.08,13C252.07,361,251.72,390.47,252.94,419.94Z"/><path class="cls-3" d="M252.94,419.94c-1.22-29.47-.87-59-.87-88.45a34.48,34.48,0,0,1,2.08-13c8.37,1.36,9.12,2.4,10,10.3a87.15,87.15,0,0,0,11.11,34.65c1.15,2,2.16,4.09,3.24,6.13-8.09,16.52-16.61,32.83-23.7,49.81a8.16,8.16,0,0,1-1.12,1.54Z"/><path class="cls-2" d="M216.24,259.35c9.27,2.63,18.57,5.15,27.79,7.93,5.63,1.69,11.09,1.31,16.69-.06,7.16-1.75,14.39-3.2,22.06-4.88-3.43,6.09-6.6,11.66-9.69,17.27A77.26,77.26,0,0,0,267.44,294c-.68,2.16-1.64,3.81-4.12,3.3-9.51-2-18.83-.35-28.17,1.22-3.32-13.29-8.6-25.62-17.68-36.09A3.66,3.66,0,0,1,216.24,259.35Z"/><path class="cls-7" d="M466.72,137.59c-8.32.68-16,3.86-24,6-11.73,3.19-23.68,5.64-35.08,10-9.53,1.51-18.72,4.37-28,7q-38.81,11-77.58,22c-10.35,2.94-20.69,5.93-31.33,9-1.39-4.44.7-6.24,4.38-7.27,11.51-3.22,23-6.51,34.5-9.78l105.88-30q24.19-6.87,48.38-13.77a17.09,17.09,0,0,1,3-.33A18.31,18.31,0,0,1,466.72,137.59Z"/><path class="cls-2" d="M370.39,233.36c1.78,1.08,3.58,1,5.65.74,13.16-1.54,26.24-3.43,39.1-6.71a31.91,31.91,0,0,1,4.3-.47c.16,5.8-1.53,11.18-2.27,16.66-4.51.23-8.83-1-13.21-1.74-10.89-1.89-21.73-4.1-32.77-5l-2.25-.29-1.26-1.46A3.93,3.93,0,0,1,370.39,233.36Z"/><path class="cls-9" d="M288.92,289.44c-4.1,10.45-6.78,21.16-6.06,32.51,1.58,25.12,12.31,44.81,34.2,57.93,1.23.74,2.83,1,3.53,2.53l2.54,1.14-.09-.09,1.09,1.08,0-.07-.06,3c-17-6.4-29.14-18.18-36.91-34.3-8.88-18.44-10.59-37.5-2.57-56.81C285.59,293.88,286,290.84,288.92,289.44Z"/><path class="cls-9" d="M78.18,272.64c-.51,22,1.27,43.85,7.82,65,6,19.44,17.44,34.89,35.08,45.44,0,.74,0,1.48,0,2.21l-1.27-.62c-.09-.48-.31-.72-.82-.46-13.66-6.91-22.9-18.11-29.72-31.39-7.92-15.44-11.81-32-13.36-49.3-.76-8.49-.88-17-.85-25.45C75.05,275.64,75.2,273.34,78.18,272.64Z"/><path class="cls-9" d="M371.19,236.87c11,.87,21.88,3.08,32.77,5,4.38.76,8.7,2,13.21,1.74,12.12,2.19,24.39,2.71,36.66,3.14.26.55.53,1.1.79,1.64-.47,3.3-3.07,1.92-4.68,1.87-20.34-.72-40.33-4-60.19-8.21-6.15-1.32-12.35-2.43-18.52-3.64C371.21,237.88,371.2,237.37,371.19,236.87Z"/><path class="cls-9" d="M216.24,259.35a3.66,3.66,0,0,0,1.23,3.07c9.08,10.47,14.36,22.8,17.68,36.09-3.07,2.05-3.53-.25-4.13-2.44a84.86,84.86,0,0,0-19.76-35.36c-7-7.57-15.56-12.89-24.24-18.14v-1.31a58.4,58.4,0,0,1,20.61,11.41C210.4,255,212.92,257.72,216.24,259.35Z"/><path class="cls-9" d="M393.89,183.41a2.89,2.89,0,0,0-.87,2.41c-9.51,4.3-19.73,6.44-29.63,9.53-12.77,4-25.72,7.43-38.58,11.09.06-.65.11-1.29.17-1.94q29.67-9.33,59.34-18.64C387.46,184.88,390.7,184.22,393.89,183.41Z"/><path class="cls-7" d="M121.06,385.3c0-.73,0-1.47,0-2.21,12,6,24.85,7.2,38,6.59-.38.51-.72,1.44-1.13,1.47C145.2,392.13,132.54,392.39,121.06,385.3Z"/><path class="cls-7" d="M324,387.49l.06-3c8.58,2.28,17,5.39,26,5.4-2.44,3.53-6,1.55-9,1.62C335.14,391.61,329.29,390.61,324,387.49Z"/><path class="cls-7" d="M325,204.5c-.06.65-.11,1.29-.17,1.94-10.38,4.44-21.38,6.68-32.31,9.23A233.64,233.64,0,0,1,325,204.5Z"/><path class="cls-7" d="M366.4,238.06c-5.79.29-11.37-1.37-17.12-1.87a38.41,38.41,0,0,1,17-1.41Z"/><path class="cls-7" d="M187,241.26v1.31l-15.49-4.31.36-1.39C177.09,237.64,182.62,237,187,241.26Z"/><path class="cls-9" d="M366.4,238.06l-.15-3.28,1.43.33,1.27,1.47-1.13,1.62Z"/><path class="cls-7" d="M367.82,238.2l1.13-1.62,2.24.29c0,.5,0,1,0,1.51Z"/><path class="cls-8" d="M451.65,259.9c-.16.59.36,1.45-.68,1.7C451.2,261,451.42,260.46,451.65,259.9Z"/><path class="cls-7" d="M119,384.22c.51-.26.73,0,.82.46A1.77,1.77,0,0,1,119,384.22Z"/><path class="cls-10" d="M252.05,551.55c7.71-5.44,15.29-11.09,23.18-16.27,21.82-14.35,45.71-24.3,70.36-32.57a6.08,6.08,0,0,1,1.49-.13,3,3,0,0,0,0,.85C314.64,515.17,284.17,530.52,257,552c-1.54,1.22-3,2.71-5.13,2.88-.64-1.06-1.29-2.11-1.93-3.16Z"/><path class="cls-8" d="M249.93,551.69c.64,1,1.29,2.1,1.93,3.16l0,.18a353.2,353.2,0,0,0-56.74-35.9c-1.93-1-3.9-1.85-5.85-2.77l1.65-.66C212.25,525,232.14,536.63,249.93,551.69Z"/><path class="cls-11" d="M191,515.7l-1.65.66c-5.66-1.33-10.6-4.45-16-6.38-5.76-2.05-11.46-4.3-17.18-6.47,0-.38-.07-.77-.11-1.15A148,148,0,0,1,191,515.7Z"/><path class="cls-12" d="M156,502.36c0,.38.08.77.11,1.15l-26-7.95.36-1.26C139,496.76,147.9,498.14,156,502.36Z"/><path class="cls-12" d="M127.37,493.94a5.18,5.18,0,0,1-.73.47.62.62,0,0,1-.46-.06c-.44-.23-.42-.51.06-.62A4.12,4.12,0,0,1,127.37,493.94Z"/><path class="cls-1" d="M142,464.44l.94.16Z"/><path class="cls-5" d="M347.05,503.43a3,3,0,0,1,0-.85c7.51-4,15.86-5.5,23.91-7.84,2.9-.85,5.73-2.73,10-1.59Z"/><path class="cls-5" d="M387.4,491.38l-.33-.5a4.48,4.48,0,0,1,.81-.06c.11,0,.19.19.29.29Z"/><path class="cls-5" d="M383.52,492.38l-.51-.47a7.55,7.55,0,0,1,.83-.13c.1,0,.21.17.32.26Z"/><path class="cls-3" d="M352.25,382.79c-35.39,1.57-62-31-62.37-62.28C289.46,285,321,254.71,353,255.1c32.8.4,62,29.79,62.14,63.28C415.21,354.61,386.63,383.46,352.25,382.79Zm-41.19-79.23c-1.32.18-1.13,1.11-1,2-2.91,5.07-2.71,10.51-1.28,15.83,3.2,12,15.73,19.43,28,17,11.89-2.34,19.52-13.59,18.36-27.1-1-11-11.65-20.42-23.38-20.52C323,290.74,313.32,296.73,311.06,303.56Z"/><path class="cls-7" d="M323.13,383.55l-2.54-1.14A3.26,3.26,0,0,1,323.13,383.55Z"/><path class="cls-7" d="M324.13,384.54,323,383.46C323.57,383.65,324.37,383.57,324.13,384.54Z"/><path class="cls-3" d="M152.25,383c-34.35,1.68-57.2-29.05-62.12-51.13-8.89-39.9,26-76.67,60.05-76.62,35.61.05,65.71,29,65.73,64.75C215.93,359.56,183.22,383.93,152.25,383Zm3-81.37q-1.16,2.44-2.29,4.88c-3.33,2-2,5.42-2.09,8.16-.21,10.17,4.67,17.63,13.7,21.9,8.69,4.1,17.38,3.25,24.76-3.09s9.9-14.83,7.69-24.36c-2.26-9.76-9.9-16.47-19.81-17.87C168.51,290,159.44,294.28,155.25,301.61Z"/><path class="cls-1" d="M311.06,303.57c2.26-6.84,12-12.83,20.69-12.76,11.73.1,22.42,9.48,23.38,20.52,1.16,13.51-6.47,24.76-18.36,27.1-12.26,2.4-24.79-5.08-28-17-1.43-5.32-1.63-10.76,1.28-15.83l.49.37c-.51,3.91.77,7.05,4.58,8.38a7.18,7.18,0,0,0,8.19-2.07c2.27-2.61,2.08-5.55.57-8.38-2.33-4.36-7.88-4.37-12.62-.13Z"/><path class="cls-1" d="M310.06,305.57c-.13-.9-.32-1.83,1-2l.21.18-.72,2.2Z"/><path class="cls-1" d="M155.25,301.61c4.19-7.33,13.26-11.61,22-10.38,9.91,1.4,17.55,8.11,19.81,17.87,2.21,9.53-.27,18-7.69,24.36s-16.07,7.19-24.76,3.09c-9-4.27-13.91-11.73-13.7-21.9.06-2.74-1.24-6.13,2.09-8.15a18.21,18.21,0,0,0,.62,3.4,7.22,7.22,0,0,0,9.32,4.44c3.75-1.46,5.27-4.42,4.35-8.39-1-4.23-4.38-6.22-8.7-5.22C157.44,301,156.35,301.31,155.25,301.61Z"/><path class="cls-8" d="M155.25,301.61c1.1-.3,2.19-.63,3.3-.88,4.32-1,7.72,1,8.7,5.22.92,4-.6,6.93-4.35,8.39a7.22,7.22,0,0,1-9.32-4.44,18.21,18.21,0,0,1-.62-3.4Q154.1,304.06,155.25,301.61Z"/><path class="cls-8" d="M310.55,305.94l.72-2.2c4.74-4.24,10.29-4.23,12.62.13,1.51,2.83,1.7,5.77-.57,8.38a7.18,7.18,0,0,1-8.19,2.07C311.32,313,310,309.85,310.55,305.94Z"/><text class="cls-13" transform="translate(530.32 427.53)">skowly</text><path class="cls-3" d="M617.86,538.5H580V466.38h36.26V474H588.37v24h25.8v7.59h-25.8v25.24h29.49Z"/><path class="cls-3" d="M667.77,487l-17.13,26,16.83,25.45H658l-10-16.7c-.34-.53-.68-1.12-1.05-1.76s-.76-1.36-1.19-2.16h-.2c-.1.13-.34.54-.73,1.21s-.92,1.57-1.61,2.71L633,538.5h-9.41l17.38-25.25L624.28,487h9.52l9.86,17.6c.37.67.72,1.35,1.07,2s.71,1.34,1.07,2h.2l1.2-2,1.2-2L658.76,487Z"/><path class="cls-3" d="M713.21,535.43a27.89,27.89,0,0,1-7.08,3.24,27.4,27.4,0,0,1-7.72,1q-10.75,0-17.66-6.74t-6.9-19.11q0-12.57,6.95-20.32t19.1-7.74a27.32,27.32,0,0,1,14.7,4.07l-3.44,6a24.46,24.46,0,0,0-5.58-2.36,22.54,22.54,0,0,0-6-.75q-8.43,0-12.91,5.68t-4.48,14.43q0,9.66,4.71,14.74a15.87,15.87,0,0,0,12.18,5.07,18.1,18.1,0,0,0,5.1-.77,22.15,22.15,0,0,0,5.36-2.44Z"/><path class="cls-3" d="M765.46,514.61H729.4q.2,8.7,4.55,13.4t12.23,4.7a24,24,0,0,0,6.9-1,25.12,25.12,0,0,0,6.85-3.29l3.79,5.88a33.85,33.85,0,0,1-8.67,4.13,32.88,32.88,0,0,1-9.51,1.31q-11.56,0-18-6.94T721,513.4q-.06-12.42,6.5-20a21.41,21.41,0,0,1,17-7.59q10,0,15.47,6.56t5.5,18.18Zm-8.37-6.74q0-7.14-3.43-11.14a11.58,11.58,0,0,0-9.32-4,13.4,13.4,0,0,0-9.89,4.09,18.51,18.51,0,0,0-5,11Z"/><path class="cls-3" d="M777.82,538.5V462.26H786V538.5Z"/><path class="cls-3" d="M802.52,538.5V462.26h8.17V538.5Z"/><path class="cls-3" d="M868.23,514.61H832.16q.21,8.7,4.56,13.4t12.23,4.7a24,24,0,0,0,6.9-1,25.12,25.12,0,0,0,6.85-3.29l3.79,5.88a33.85,33.85,0,0,1-8.67,4.13,32.9,32.9,0,0,1-9.52,1.31q-11.55,0-18-6.94t-6.52-19.37q-.06-12.42,6.5-20a21.39,21.39,0,0,1,17-7.59q10,0,15.47,6.56t5.5,18.18Zm-8.37-6.74q0-7.14-3.44-11.14a11.55,11.55,0,0,0-9.31-4,13.4,13.4,0,0,0-9.89,4.09,18.57,18.57,0,0,0-5,11Z"/><path class="cls-3" d="M922.93,538.5h-8.17V509.13q0-8.19-3-12.3t-8.89-4.09a12.83,12.83,0,0,0-10.14,4.65,17.34,17.34,0,0,0-4,11.74V538.5h-8.17V487h8.17v8.55H889a20,20,0,0,1,7.08-7.31,18.79,18.79,0,0,1,9.66-2.44q8.37,0,12.8,5.45T922.93,507Z"/><path class="cls-3" d="M974.19,535.43a27.89,27.89,0,0,1-7.08,3.24,27.35,27.35,0,0,1-7.72,1q-10.75,0-17.66-6.74t-6.9-19.11q0-12.57,6.95-20.32t19.11-7.74a29.06,29.06,0,0,1,7.49.95,28.68,28.68,0,0,1,7.2,3.12l-3.43,6a24.84,24.84,0,0,0-5.58-2.36,22.62,22.62,0,0,0-6-.75q-8.42,0-12.9,5.68T943.2,512.9q0,9.66,4.71,14.74a15.87,15.87,0,0,0,12.18,5.07,18.17,18.17,0,0,0,5.11-.77,22.26,22.26,0,0,0,5.35-2.44Z"/><path class="cls-3" d="M1026.45,514.61H990.38q.2,8.7,4.56,13.4t12.23,4.7a24,24,0,0,0,6.9-1,25.26,25.26,0,0,0,6.85-3.29l3.78,5.88a33.85,33.85,0,0,1-8.67,4.13,32.88,32.88,0,0,1-9.51,1.31q-11.57,0-18-6.94T982,513.4q0-12.42,6.5-20a21.42,21.42,0,0,1,17-7.59q10,0,15.47,6.56t5.51,18.18Zm-8.37-6.74q-.06-7.14-3.44-11.14a11.57,11.57,0,0,0-9.32-4,13.37,13.37,0,0,0-9.88,4.09,18.57,18.57,0,0,0-5,11Z"/><path class="cls-3" d="M1091.06,537.89a24.85,24.85,0,0,1-4.11,1.29,22.55,22.55,0,0,1-4.56.42q-6.08,0-9.54-3.59t-3.46-10.64V494h-8.77v-7h8.77V474.43l8.17-2.66V487h12.85v7h-12.85v30.38q0,4.43,1.57,6.38a5.64,5.64,0,0,0,4.7,2,11.5,11.5,0,0,0,2.89-.36,12.44,12.44,0,0,0,2.34-.8Z"/><path class="cls-3" d="M1143.66,538.5h-8.17V508.83q0-8.06-3-12.07t-8.89-4a12.89,12.89,0,0,0-10.07,4.65q-4.08,4.65-4.08,11.94V538.5h-8.17V462.26h8.17v33.29h.2a20.33,20.33,0,0,1,7.12-7.31,18.68,18.68,0,0,1,9.61-2.44q8.63,0,12.93,5.23t4.31,15.74Z"/><path class="cls-3" d="M1184.21,494a12.18,12.18,0,0,0-1.69-.42,11.07,11.07,0,0,0-1.9-.13,11.22,11.22,0,0,0-9.81,5.36q-3.58,5.36-3.59,13.4V538.5h-8.17V487h8.17v10.21h.2a16.75,16.75,0,0,1,5.33-8.27,13,13,0,0,1,8.27-2.84,19.4,19.4,0,0,1,2.62.15,10,10,0,0,1,1.92.45Z"/><path class="cls-3" d="M1215.84,539.71q-11.31,0-18-7.22T1191,513.35q0-12.92,7-20.21t19-7.34q11.4-.06,17.81,7.09t6.4,19.66q0,12.38-6.9,19.76T1215.84,539.71Zm.6-6.94q7.92,0,12.18-5.21t4.26-14.71q0-9.71-4.28-14.91t-12.16-5.2q-7.87,0-12.45,5.43t-4.59,14.88q0,9.15,4.64,14.44A15.7,15.7,0,0,0,1216.44,532.77Z"/><path class="cls-3" d="M1295.55,538.5h-8.17v-8.15h-.2a16.76,16.76,0,0,1-15.74,9.36q-9.12,0-13.68-5.49t-4.55-16.44V487h8.12v29.47q0,8.14,3.08,12.22t9.27,4.08a12.45,12.45,0,0,0,9.84-4.46q3.86-4.44,3.86-11.64V487h8.17Z"/><path class="cls-3" d="M1355.58,535.73q0,13.53-6.85,20.27T1330,562.74a41.86,41.86,0,0,1-19-4.28l3-6.33a38.37,38.37,0,0,0,7.8,2.71,37.09,37.09,0,0,0,8.14.86q8.18,0,12.85-4.68t4.69-14.18v-7h-.2a19.58,19.58,0,0,1-7.28,7.39,20.61,20.61,0,0,1-10.26,2.47,19.07,19.07,0,0,1-15.32-6.87q-5.8-6.87-5.8-18.43,0-12.67,6.4-20.64a20.65,20.65,0,0,1,17-8,18.5,18.5,0,0,1,9,2.08,16.66,16.66,0,0,1,6.3,6.26h.2V487h8.17Zm-8.17-20.52v-7.59a14.81,14.81,0,0,0-4.11-10.51,13.47,13.47,0,0,0-10.24-4.37q-7.53,0-11.83,5.23t-4.31,15.89q0,9.15,4,14t11,4.88a14.19,14.19,0,0,0,11.19-4.93Q1347.41,522.91,1347.41,515.21Z"/><path class="cls-3" d="M1414.46,538.5h-8.17V508.83q0-8.06-3-12.07t-8.89-4a12.87,12.87,0,0,0-10.06,4.65q-4.08,4.65-4.08,11.94V538.5h-8.17V462.26h8.17v33.29h.19a20.35,20.35,0,0,1,7.13-7.31,18.68,18.68,0,0,1,9.61-2.44q8.63,0,12.93,5.23t4.31,15.74Z"/><path class="cls-3" d="M1467.26,538.5h-8.37V466.38h8.37Z"/><path class="cls-3" d="M1527.29,538.5h-8.17V509.13q0-8.19-3-12.3t-8.9-4.09a12.8,12.8,0,0,0-10.13,4.65,17.3,17.3,0,0,0-4,11.74V538.5H1485V487h8.17v8.55h.2a19.9,19.9,0,0,1,7.07-7.31,18.79,18.79,0,0,1,9.66-2.44q8.37,0,12.81,5.45t4.43,15.77Z"/><path class="cls-3" d="M1537.9,534.63l3.89-6.34a29.67,29.67,0,0,0,6.52,3.34,20.31,20.31,0,0,0,6.88,1.14q5.22,0,7.94-2a6.77,6.77,0,0,0,2.72-5.88,7,7,0,0,0-2.42-5.36,17.9,17.9,0,0,0-7.55-3.49q-9.56-2.46-13.1-6.21a12.92,12.92,0,0,1-3.53-9.23,13.62,13.62,0,0,1,4.73-10.58q4.73-4.26,13.2-4.25a28.26,28.26,0,0,1,7.77,1.05,27,27,0,0,1,7.52,3.62l-3.63,6.24a27.37,27.37,0,0,0-6.25-3.09,18.36,18.36,0,0,0-5.61-.88q-4.93,0-7.52,1.83a6.1,6.1,0,0,0-2.59,5.31,5.88,5.88,0,0,0,2.66,5.23,30.62,30.62,0,0,0,8.6,3.32q7.77,2.1,11.63,5.9a13.36,13.36,0,0,1,3.86,9.94,13.89,13.89,0,0,1-5,11.29q-5,4.14-13.72,4.15a30.84,30.84,0,0,1-9-1.31A29.94,29.94,0,0,1,1537.9,534.63Z"/><path class="cls-3" d="M1590.16,474.68A5.72,5.72,0,0,1,1586,473a5.94,5.94,0,0,1,0-8.3,6.05,6.05,0,0,1,8.37,0,5.92,5.92,0,0,1,0,8.3A5.7,5.7,0,0,1,1590.16,474.68Zm4,63.82H1586V487h8.17Z"/><path class="cls-3" d="M1654.22,535.73q0,13.53-6.85,20.27t-18.75,6.74a44.67,44.67,0,0,1-9.74-1,44,44,0,0,1-9.29-3.27l3-6.33a38.37,38.37,0,0,0,7.8,2.71,37.18,37.18,0,0,0,8.15.86q8.16,0,12.85-4.68t4.68-14.18v-7h-.2a19.63,19.63,0,0,1-7.27,7.39,20.64,20.64,0,0,1-10.26,2.47,19.06,19.06,0,0,1-15.32-6.87q-5.8-6.87-5.81-18.43,0-12.67,6.41-20.64a20.64,20.64,0,0,1,17-8,18.46,18.46,0,0,1,9,2.08,16.66,16.66,0,0,1,6.3,6.26h.2V487h8.17Zm-8.17-20.52v-7.59a14.81,14.81,0,0,0-4.11-10.51,13.45,13.45,0,0,0-10.24-4.37q-7.52,0-11.83,5.23t-4.31,15.89q0,9.15,4,14t11,4.88a14.17,14.17,0,0,0,11.18-4.93Q1646,522.91,1646.05,515.21Z"/><path class="cls-3" d="M1713.1,538.5h-8.17V508.83q0-8.06-3-12.07t-8.89-4a12.89,12.89,0,0,0-10.07,4.65q-4.08,4.65-4.08,11.94V538.5h-8.17V462.26h8.17v33.29h.2a20.33,20.33,0,0,1,7.12-7.31,18.72,18.72,0,0,1,9.62-2.44q8.61,0,12.92,5.23t4.31,15.74Z"/><path class="cls-3" d="M1752.8,537.89a24.46,24.46,0,0,1-4.1,1.29,22.55,22.55,0,0,1-4.56.42q-6.08,0-9.54-3.59t-3.47-10.64V494h-8.76v-7h8.76V474.43l8.17-2.66V487h12.86v7H1739.3v30.38c0,3,.53,5.08,1.57,6.38a5.68,5.68,0,0,0,4.71,2,11.5,11.5,0,0,0,2.89-.36,12.44,12.44,0,0,0,2.34-.8Z"/></g></g></svg>